# xmcd
#
# Track frame offsets: 
#        150
#        21762
#        41512
#        62862
#        82425
#        107575
#        128737
#        149237
#        172712
#        192337
#
# Disc length: 2861 seconds
#
# Revision: 18
# Processed by: cddbd v1.5.2PL0 Copyright (c) Steve Scherf et al.
# Submitted via: ExactAudioCopyFreeDBPlugin 1.0
#
DISCID=8e0b2b0a
DTITLE=張惠妹( 阿妹 ) - 姐妹
DYEAR=1996
DGENRE=Pop
TTITLE0=原來你什麼都不要
TTITLE1=姐妹
TTITLE2=解脫
TTITLE3=衝動
TTITLE4=水藍色眼淚
TTITLE5=剪愛
TTITLE6=背叛
TTITLE7=愛到不能收
TTITLE8=認真
TTITLE9=空中的夢想家
EXTD=ifpi.org.tw YEAR: 1996
EXTT0=馸ຄ渜๸g Hui-mei (a-mei)
EXTT1=渠๹㾔๱g Hui-mei (a-mei)
EXTT2=渜๸㤰๯g Hui-mei (a-mei)
EXTT3=㾔๱㦨๭g Hui-mei (a-mei)
EXTT4=㤰๯๼g Hui-mei (a-mei)
EXTT5=㦨๭๾g Hui-mei (a-mei)
EXTT6=๼຀g Hui-mei (a-mei)
EXTT7=๾ຂg Hui-mei (a-mei)
EXTT8=຀ຄg Hui-mei (a-mei)
EXTT9=ຂ꧄຅g Hui-mei (a-mei)
PLAYORDER=
